PathFileType	4	(X/Y/Z)	/Users/niels/Desktop/University/Third Semester/Perception and Action/Exam/Gymnastics Motion Tracking/Code for Gym Tracking/Analyzed Data/Webcam_Backflip/id2_4_baseline_Sports2D/id2_4_baseline_Sports2D_px_person00.trc
DataRate	CameraRate	NumFrames	NumMarkers	Units	OrigDataRate	OrigDataStartFrame	OrigNumFrames
29.87551867219917	29.87551867219917	10	22	m	29.87551867219917	180	241
Frame#	Time	Hip			RHip			RKnee			RAnkle			RBigToe			RSmallToe			RHeel			LHip			LKnee			LAnkle			LBigToe			LSmallToe			LHeel			Neck			Head			Nose			RShoulder			RElbow			RWrist			LShoulder			LElbow			LWrist		
		X1	Y1	Z1	X2	Y2	Z2	X3	Y3	Z3	X4	Y4	Z4	X5	Y5	Z5	X6	Y6	Z6	X7	Y7	Z7	X8	Y8	Z8	X9	Y9	Z9	X10	Y10	Z10	X11	Y11	Z11	X12	Y12	Z12	X13	Y13	Z13	X14	Y14	Z14	X15	Y15	Z15	X16	Y16	Z16	X17	Y17	Z17	X18	Y18	Z18	X19	Y19	Z19	X20	Y20	Z20	X21	Y21	Z21	X22	Y22	Z22
180	6.025	0.7345879366388933	-0.5779738827973075	0.0	0.7303010853411471	-0.5775305809904804	0.0	0.727669982164113	-0.6884287353931235	0.0	0.7013892389822531	-0.8059950193382294	0.0	0.7407420173617365	-0.8268297693353333	0.0	0.7271517915196644	-0.8297750244225653	0.0	0.6899672052877852	-0.8216343572644891	0.0	0.7426063408897907	-0.5771979748596724	0.0	0.7388314864587531	-0.6870053624654422	0.0	0.7171400063185654	-0.7955525588770062	0.0	0.7530544887365568	-0.8144324262355096	0.0	0.7504085823838985	-0.8104060932009617	0.0	0.7096045956590278	-0.8107386518855375	0.0	0.7359952427781007	-0.41247983488776324	0.0	0.7522219998434071	-0.339915014672014	0.0	0.7722134505726007	-0.37869673975640367	0.0	0.7210964512489288	-0.43654942335372227	0.0	0.7189577475923417	-0.5209206109987431	0.0	0.7461887949420944	-0.5931928932021544	0.0	0.7369348250051331	-0.4370952447802664	0.0	0.737051564051077	-0.5152843379190307	0.0	0.7616495034716045	-0.5787250805492112	0.0
181	6.058472222222222	0.737839309743464	-0.5744404556473143	0.0	0.7329054885835725	-0.5736437564167681	0.0	0.7283468515800493	-0.6852293760565038	0.0	0.7011582740213892	-0.802052022074307	0.0	0.7390847131531272	-0.8237041774544285	0.0	0.724850596725971	-0.8268063215451513	0.0	0.6899335886022833	-0.818243260224205	0.0	0.745510898064336	-0.5734637815952889	0.0	0.7389850484812508	-0.68393260211632	0.0	0.717367284197039	-0.7911469331719175	0.0	0.7520823517528608	-0.8108696245888617	0.0	0.7497680153314866	-0.8066531776134684	0.0	0.7106521986138037	-0.8072123651021762	0.0	0.736463208760187	-0.4086707187657302	0.0	0.7528884785770922	-0.33632232410563145	0.0	0.7725548736036039	-0.37444506772305153	0.0	0.721449088642127	-0.4327026999552495	0.0	0.7148805130074491	-0.5165274072192169	0.0	0.7334524955270625	-0.5929861825960571	0.0	0.7374356868994413	-0.4332683581245032	0.0	0.7346945365933668	-0.5108079988005512	0.0	0.7543285317437534	-0.5788953837508001	0.0
182	6.091944444444445	0.7410612757019706	-0.5691179927615625	0.0	0.7354800573440814	-0.5679359255340148	0.0	0.7291731906182096	-0.680972353279955	0.0	0.7010260789448695	-0.7978622331062283	0.0	0.7375676174370724	-0.8199630906030336	0.0	0.7229569161615021	-0.8231234728443769	0.0	0.6897870211839131	-0.8144803628342688	0.0	0.7484174120600869	-0.5678325097753198	0.0	0.7392722359879481	-0.6798250387388882	0.0	0.7176681654826254	-0.7862252603618658	0.0	0.7516889324666635	-0.8069993547109032	0.0	0.7495133091871061	-0.8025604286279482	0.0	0.7114048037364465	-0.8031029707533306	0.0	0.7368116553330922	-0.4043481066260181	0.0	0.7540516568466697	-0.33186155339460127	0.0	0.7731193499019883	-0.3697499274520405	0.0	0.7216991317073224	-0.427901403499563	0.0	0.7098835873214306	-0.5103693302658856	0.0	0.7226383659975172	-0.5890584639402803	0.0	0.7378134427499635	-0.428335902298596	0.0	0.7316691425244103	-0.5047716111143941	0.0	0.7477491431384959	-0.5754897658000665	0.0
183	6.125416666666667	0.7437907300868226	-0.5629647900345064	0.0	0.7377277083113511	-0.5614416918147556	0.0	0.7300788586512917	-0.6760492542991461	0.0	0.7009678455791566	-0.793686647406821	0.0	0.7362694682699114	-0.816064503877601	0.0	0.7215458212279238	-0.8191501634577522	0.0	0.6896734186604963	-0.810565842268833	0.0	0.7510215222696549	-0.5613176612792145	0.0	0.7397378530173385	-0.6750877413192496	0.0	0.7180472569945888	-0.7811910955207912	0.0	0.751672104808471	-0.8030115408187006	0.0	0.7495778150779994	-0.7983779571167046	0.0	0.7118173826386764	-0.7987322275960642	0.0	0.7370698289936587	-0.3998775214727655	0.0	0.7555471812339752	-0.3270023708189502	0.0	0.7737821949267785	-0.3649028784935631	0.0	0.7218566051079571	-0.422579828638569	0.0	0.7047978467524106	-0.5033694303270864	0.0	0.7142531553720445	-0.5831392319462998	0.0	0.73823291862912	-0.4229096623174011	0.0	0.7285993670863223	-0.49806757919524164	0.0	0.7421917578335877	-0.5697965204957914	0.0
184	6.158888888888889	0.7457918520065125	-0.5569952075620828	0.0	0.7394559866989755	-0.555206953382598	0.0	0.7309517387446505	-0.6710253538174786	0.0	0.7009697839731304	-0.7897103601246854	0.0	0.7352462697531481	-0.8124274972600053	0.0	0.7205842518741838	-0.8153192212783967	0.0	0.6897050291603806	-0.8067029629993586	0.0	0.7531352143408819	-0.5550132859081147	0.0	0.7403995462329255	-0.6702495753823172	0.0	0.7185599482054601	-0.7764308365231471	0.0	0.7517800601294569	-0.7991583966954194	0.0	0.749846101354344	-0.7944064042145337	0.0	0.7120651765270278	-0.7944339359655361	0.0	0.7372931604635774	-0.3955684663056083	0.0	0.7571618939346684	-0.32224524003081023	0.0	0.7744410298605415	-0.3602222259317924	0.0	0.7219320300893751	-0.41720801892866866	0.0	0.7004142248254079	-0.4963722410687103	0.0	0.7083215934851551	-0.5766136899844911	0.0	0.7387995388831216	-0.41762522433294963	0.0	0.7259685842924718	-0.4915435800437461	0.0	0.737626154863691	-0.5632340045335499	0.0
185	6.192361111111111	0.7470815568547924	-0.5519031202400326	0.0	0.7406282040986871	-0.5499373542881534	0.0	0.7316935766877166	-0.6664673350187418	0.0	0.70104120613101	-0.7861171424255836	0.0	0.7346410348867795	-0.8093198587874212	0.0	0.7201135618033723	-0.8119804308945822	0.0	0.6898791523022105	-0.8031271085760939	0.0	0.7546882730705814	-0.5496771146546611	0.0	0.7412361566848615	-0.6658336321360161	0.0	0.7192633668275468	-0.7723203806015673	0.0	0.7518759888696079	-0.7958009766247647	0.0	0.7502339049640653	-0.7909991064310908	0.0	0.712413943743365	-0.7905402846040008	0.0	0.737551295269366	-0.3916450701595193	0.0	0.758688202665284	-0.3179849493103117	0.0	0.7750795581871065	-0.35602668653040903	0.0	0.72197422995203	-0.4122462389809805	0.0	0.6972271695079971	-0.4901070770461716	0.0	0.7046553865336929	-0.5704987378838645	0.0	0.7395162259029322	-0.4129545252328754	0.0	0.724085655348847	-0.48587685110425516	0.0	0.7340647867341766	-0.5571128025994988	0.0
186	6.225833333333333	0.7478367082251649	-0.5480456302984047	0.0	0.7413300163216826	-0.5459693027267688	0.0	0.7322569897957673	-0.662805654438967	0.0	0.7011877241751794	-0.783090773992008	0.0	0.734518297030689	-0.8068768401683222	0.0	0.7201232386296526	-0.8093579499220891	0.0	0.6901139096480023	-0.8001003028297163	0.0	0.7557349883351491	-0.5456880435279065	0.0	0.7422223277047391	-0.6622721704475327	0.0	0.7201478594211183	-0.7691396291344373	0.0	0.7519356101665119	-0.7932786888017546	0.0	0.7507074676341703	-0.7884486314625365	0.0	0.713003732805636	-0.7873587567612755	0.0	0.7379028629032041	-0.3883128435778277	0.0	0.7599967729626975	-0.314474941386665	0.0	0.7757282569973858	-0.35258415895133155	0.0	0.7220787931878114	-0.40808001987409237	0.0	0.6953832181631432	-0.4851172418311277	0.0	0.7030239907802481	-0.5654349844508713	0.0	0.7403087751213097	-0.4091864423786324	0.0	0.7231070171483995	-0.4814847637762401	0.0	0.7318593755940126	-0.5523178146109071	0.0
187	6.259305555555556	0.7482798453863879	-0.5455567604197477	0.0	0.741703623321626	-0.5433753695377452	0.0	0.7326632855025409	-0.6602891655649594	0.0	0.701389815377371	-0.7808002581576428	0.0	0.7347447918458034	-0.8051991049449841	0.0	0.7204305607005526	-0.8075613459483942	0.0	0.6903431529714903	-0.7978596394318658	0.0	0.7564160605536684	-0.5431709601621191	0.0	0.7433491720059698	-0.6598464592236046	0.0	0.721116893101479	-0.7670126685210118	0.0	0.7519982061376883	-0.7918046770559682	0.0	0.7512684874686933	-0.786921244583357	0.0	0.7137545789390934	-0.7851324444135703	0.0	0.7383651277781957	-0.3857996137246092	0.0	0.7610736670699512	-0.31187618887115054	0.0	0.7764112222583613	-0.35009203729695243	0.0	0.7223217051904808	-0.40496306436133267	0.0	0.6947788518029802	-0.4816929086935443	0.0	0.7031970007961462	-0.5617085515525693	0.0	0.7410646230177489	-0.4065048215045005	0.0	0.7230432802048036	-0.4785209484174696	0.0	0.7315932780599765	-0.5491704965874775	0.0
188	6.292777777777778	0.7485685627106105	-0.5444480756174306	0.0	0.7418677584333799	-0.5421245433900895	0.0	0.7329716178261775	-0.6590163160439797	0.0	0.7016065581222285	-0.7794183627547809	0.0	0.7351236224356118	-0.8044140214181683	0.0	0.7207904822591068	-0.8066632533269767	0.0	0.6905366024298817	-0.7965827776505285	0.0	0.7568709049971465	-0.5421206104886186	0.0	0.7445578815116413	-0.6586777725285311	0.0	0.7220260606254064	-0.765988339591925	0.0	0.7521508182700446	-0.7914500485802596	0.0	0.7519160861213969	-0.786464622015559	0.0	0.7144750258635492	-0.7840121091419374	0.0	0.7389068872518892	-0.3843028611205199	0.0	0.7619707441945175	-0.31032045506108447	0.0	0.7771348037370899	-0.34870646752258244	0.0	0.722700058399621	-0.4030197139500794	0.0	0.6952058868480883	-0.4798926210245636	0.0	0.7049156932613545	-0.5593796994847898	0.0	0.7416777245787114	-0.40502511898220445	0.0	0.7237682952454253	-0.4769864865295282	0.0	0.7334780566372248	-0.5476431058071142	0.0
189	6.32625	0.7487335080084302	-0.5446734220888617	0.0	0.7418767449399396	-0.5422055430530105	0.0	0.7332268859670902	-0.658985319101441	0.0	0.7017952437873644	-0.7790898112350094	0.0	0.7355151050004902	-0.8046405900282745	0.0	0.721036946685731	-0.8067571906224476	0.0	0.6906545237132594	-0.7963669822214661	0.0	0.7571623456569601	-0.5424753194901748	0.0	0.7457022615470545	-0.6587768554478968	0.0	0.7227338550546292	-0.7661233579426114	0.0	0.7524474746964719	-0.7921433479363622	0.0	0.7525744289554719	-0.7870228311537376	0.0	0.7149960073818299	-0.784064197452785	0.0	0.7394764011356458	-0.3839217853832203	0.0	0.7627338923815378	-0.30992632074351406	0.0	0.7778923423383001	-0.3485389723722736	0.0	0.7231583391239678	-0.40229011134482007	0.0	0.6964459914496492	-0.479633784067642	0.0	0.7078318089510347	-0.5584082819327838	0.0	0.7420985759051247	-0.40477971695337545	0.0	0.725040636224788	-0.4768506570065406	0.0	0.7369093499532064	-0.547609062181707	0.0
